<svg xmlns="http://www.w3.org/2000/svg" viewBox="0 0 377.15 112" fill="#0b0b0b"><g transform="translate(-7.30 78) scale(0.10000 -0.10000)"><path d="M73 0L73 700L351 700Q415 700 465.5 674.5Q516 649 544.5 602.5Q573 556 573 491L573 478Q573 413 543.5 366Q514 319 464 294Q414 269 351 269L181 269L181 0ZM181 367L340 367Q397 367 431 397Q465 427 465 479L465 489Q465 542 431 572Q397 602 340 602L181 602Z M678.6 0L678.6 700L781.6 700L781.6 423L797.6 423Q807.6 442 826.1 460Q844.6 478 875.1 489.5Q905.6 501 952.6 501Q1008.6 501 1052.1 476Q1095.6 451 1120.6 405.5Q1145.6 360 1145.6 296L1145.6 0L1042.6 0L1042.6 288Q1042.6 352 1010.6 382.5Q978.6 413 922.6 413Q858.6 413 820.1 371Q781.6 329 781.6 249L781.6 0Z M1524.2 -14Q1450.2 -14 1392.7 16.5Q1335.2 47 1302.2 104Q1269.2 161 1269.2 239L1269.2 254Q1269.2 332 1302.2 388.5Q1335.2 445 1392.7 476Q1450.2 507 1524.2 507Q1598.2 507 1656.2 476Q1714.2 445 1747.2 388.5Q1780.2 332 1780.2 254L1780.2 239Q1780.2 161 1747.2 104Q1714.2 47 1656.2 16.5Q1598.2 -14 1524.2 -14ZM1524.2 78Q1592.2 78 1634.7 121.5Q1677.2 165 1677.2 242L1677.2 251Q1677.2 328 1635.2 371.5Q1593.2 415 1524.2 415Q1457.2 415 1414.7 371.5Q1372.2 328 1372.2 251L1372.2 242Q1372.2 165 1414.7 121.5Q1457.2 78 1524.2 78Z M2134 -14Q2059 -14 2003 17.5Q1947 49 1915.5 106.5Q1884 164 1884 240L1884 252Q1884 329 1915 386.5Q1946 444 2001.5 475.5Q2057 507 2130 507Q2201 507 2254.5 475.5Q2308 444 2338 388Q2368 332 2368 257L2368 218L1989 218Q1991 153 2032.5 114.5Q2074 76 2136 76Q2194 76 2223.5 102Q2253 128 2269 162L2354 118Q2340 90 2313.5 59Q2287 28 2244 7Q2201 -14 2134 -14ZM1990 297L2263 297Q2259 353 2223 384.5Q2187 416 2129 416Q2071 416 2034.5 384.5Q1998 353 1990 297Z M2492.35 0L2492.35 493L2593.35 493L2593.35 419L2609.35 419Q2623.35 449 2659.35 475Q2695.35 501 2766.35 501Q2822.35 501 2865.85 476Q2909.35 451 2934.35 405.5Q2959.35 360 2959.35 296L2959.35 0L2856.35 0L2856.35 288Q2856.35 352 2824.35 382.5Q2792.35 413 2736.35 413Q2672.35 413 2633.85 371Q2595.35 329 2595.35 249L2595.35 0Z M3106.95 0L3106.95 493L3209.95 493L3209.95 0ZM3158.95 560Q3128.95 560 3108.45 579.5Q3087.95 599 3087.95 630Q3087.95 661 3108.45 680.5Q3128.95 700 3158.95 700Q3189.95 700 3209.95 680.5Q3229.95 661 3229.95 630Q3229.95 599 3209.95 579.5Q3189.95 560 3158.95 560Z M3320.45 0L3508.45 249L3324.45 493L3445.45 493L3574.45 316L3590.45 316L3719.45 493L3841.45 493L3656.45 249L3844.45 0L3721.45 0L3590.45 181L3574.45 181L3443.45 0Z"/></g></svg>